{
  "title": "The.BFG.2016.HDCAM.x264-VAiN",
  "uid": 15257861,
  "size": 1664733471,
  "categoryP": "video",
  "categoryS": "movies",
  "magnet": "?xt=urn:btih:8180357be72b635cc18496f8173133001b534973&amp;dn=The.BFG.2016.HDCAM.x264-VAiN&amp;tr=udp%3A%2F%2Ftracker.leechers-paradise.org%3A6969&amp;tr=udp%3A%2F%2Fzer0day.ch%3A1337&amp;tr=udp%3A%2F%2Fopen.demonii.com%3A1337&amp;tr=udp%3A%2F%2Ftracker.coppersurfer.tk%3A6969&amp;tr=udp%3A%2F%2Fexodus.desync.com%3A6969",
  "seeders": 809,
  "leechers": 216,
  "uploader": "xxxlavalxxx",
  "files": 4,
  "time": 1468148026,
  "description": "http://extraimago.com/image/akkz\r\n \nhttp://www.imdb.com/title/tt3691740/\r\n\r\n\r\nA girl named Sophie encounters the Big Friendly Giant who, despite his intimidating appearance, turns out to be a kindhearted soul who is considered an outcast by the other giants because, unlike them, he refuses to eat children.\r\n\r\nDirector: Steven Spielberg\r\nWriters: Melissa Mathison (screenplay), Roald Dahl (based on the book by)\r\nStars: Mark Rylance, Ruby Barnhill, Penelope Wilton\r\nGenres: Adventure | Family | Fantasy\r\nCountry: UK | Canada | USA\r\nLanguage: English\r\n\r\n\r\nBasic Information\r\nFormat                      : Matroska\r\nFormat version              : Version 4 / Version 2\r\nFile size                   : 1.54 GiB\r\nDuration                    : 1h 52mn\r\nOverall bit rate mode       : Variable\r\nOverall bit rate            : 1 962 Kbps\r\nEncoded date                : UTC 2016-07-09 17:20:49\r\nWriting application         : mkvmerge v8.3.0 ('Over the Horizon') 64bit\r\nWriting library             : libebml v1.3.1 + libmatroska v1.4.2\r\n\r\nVideo\r\nID                          : 1\r\nFormat                      : AVC\r\nFormat/Info                 : Advanced Video Codec\r\nFormat profile              :   \r\nFormat settings, CABAC      : Yes\r\nFormat settings, ReFrames   : 3 frames\r\nCodec ID                    : V_MPEG4/ISO/AVC\r\nDuration                    : 1h 52mn\r\nBit rate mode               : Variable\r\nBit rate                    : 1 640 Kbps\r\nMaximum bit rate            : 40.0 Mbps\r\nWidth                       : 720 pixels\r\nHeight                      : 352 pixels\r\nDisplay aspect ratio        : 2.045\r\nFrame rate mode             : Constant\r\nFrame rate                  : 29.940 fps\r\nColor space                 : YUV\r\nChroma subsampling          : 4:2:0\r\nBit depth                   : 8 bits\r\nScan type                   : Progressive\r\nBits/(Pixel*Frame)          : 0.216\r\nStream size                 : 1.29 GiB (84%)\r\nWriting library             : x264 core 148 r2692 64f4e24\r\n\r\nLanguage                    : English\r\nDefault                     : Yes\r\nForced                      : No\r\nColor range                 : Full\r\nColor primaries             : BT.709\r\nTransfer characteristics    : BT.709\r\nMatrix coefficients         : BT.709\r\n\r\nAudio\r\nID                          : 2\r\nFormat                      : MPEG Audio\r\nFormat version              : Version 1\r\nFormat profile              : Layer 3\r\nMode                        : Joint stereo\r\nMode extension              : MS Stereo\r\nCodec ID                    : A_MPEG/L3\r\nCodec ID/Hint               : MP3\r\nDuration                    : 1h 52mn\r\nBit rate mode               : Constant\r\nBit rate                    : 320 Kbps\r\nChannel(s)                  : 2 channels\r\nSampling rate               : 48.0 KHz\r\nFrame rate                  : 41.667 fps (1152 spf)\r\nCompression mode            : Lossy\r\nStream size                 : 257 MiB (16%)\r\nLanguage                    : English\r\nDefault                     : Yes\r\nForced                      : No\r\n\r\n\r\nE N C O D E R S . N O T E S . . .       \r\n\r\nSOURCE......: ViDEO...THEBFG\r\n............: AUDiO...CPG\r\nSAMPLE......: Yippers \r\nADDED NOTE..: sumn very nice poo. HDCAM is pretty good, audio is very nice for cam. \r\nas usual took the ol' poo-shine and polished up this turd... \r\n\r\n \nhttp://extraimago.com/image/atX2 \nhttp://extraimago.com/image/atXN \nhttp://extraimago.com/image/atXT \nhttp://extraimago.com/image/atXj \nhttp://extraimago.com/image/atXn \nhttp://extraimago.com/image/atXs",
  "parsed": {
    "xt": "urn:btih:8180357be72b635cc18496f8173133001b534973",
    "dn": "The.BFG.2016.HDCAM.x264-VAiN",
    "tr": [
      "udp://exodus.desync.com:6969",
      "udp://open.demonii.com:1337",
      "udp://tracker.coppersurfer.tk:6969",
      "udp://tracker.leechers-paradise.org:6969",
      "udp://zer0day.ch:1337"
    ],
    "infoHash": "8180357be72b635cc18496f8173133001b534973",
    "infoHashBuffer": {
      "type": "Buffer",
      "data": [
        129,
        128,
        53,
        123,
        231,
        43,
        99,
        92,
        193,
        132,
        150,
        248,
        23,
        49,
        51,
        0,
        27,
        83,
        73,
        115
      ]
    },
    "name": "The.BFG.2016.HDCAM.x264-VAiN",
    "announce": [
      "udp://exodus.desync.com:6969",
      "udp://open.demonii.com:1337",
      "udp://tracker.coppersurfer.tk:6969",
      "udp://tracker.leechers-paradise.org:6969",
      "udp://zer0day.ch:1337"
    ],
    "urlList": []
  },
  "previous": 100,
  "peers": 100,
  "last_updated": "2016-12-27T05:21:23.413Z"
}